<?xml version="1.0" encoding="utf-8"?>
<!-- Generator: Adobe Illustrator 24.1.2, SVG Export Plug-In . SVG Version: 6.00 Build 0)  -->
<svg version="1.1" id="Capa_1" xmlns="http://www.w3.org/2000/svg" xmlns:xlink="http://www.w3.org/1999/xlink" x="0px" y="0px"
	 viewBox="0 0 578.8 132.7" enable-background="new 0 0 578.8 132.7" xml:space="preserve">
<g>
	<g>
		<path fill="#FFFFFF" d="M127.1,131.5V40.3h35.4v9.5h-22.6v30.2h18.4v9h-18.4v33.5h22.9v9.1H127.1z"/>
		<path fill="#FFFFFF" d="M184.2,131.5V40.3h8.7l25.9,60.6V40.3h10.6v91.2h-8.1L195,69.2v62.3H184.2z"/>
		<path fill="#FFFFFF" d="M254.9,131.5V40.3h35.4v9.5h-22.6v30.2H286v9h-18.4v33.5h22.9v9.1H254.9z"/>
		<path fill="#FFFFFF" d="M312,131.5V40.3h18.4c6.1,0,11.1,0.8,15.1,2.4c4,1.6,6.9,4.2,8.8,7.8c1.9,3.6,2.9,8.2,2.9,14
			c0,3.5-0.4,6.7-1.1,9.6c-0.8,2.9-2,5.3-3.6,7.3c-1.7,2-3.8,3.4-6.5,4.3l13,45.7h-12.3l-11.9-42.8h-9.9v42.8H312z M324.8,79.6h4.8
			c3.6,0,6.5-0.5,8.8-1.4c2.3-0.9,3.9-2.4,5-4.6c1.1-2.2,1.6-5.2,1.6-9.1c0-5.3-1-9.2-2.9-11.5c-2-2.4-5.8-3.5-11.6-3.5h-5.6V79.6z"
			/>
		<path fill="#00F8B6" d="M403.5,132.6c-5.7,0-10.3-1.2-13.7-3.7c-3.4-2.4-5.9-6-7.4-10.6c-1.5-4.7-2.3-10.3-2.3-16.8V71
			c0-6.7,0.7-12.4,2.1-17.1c1.4-4.7,3.9-8.3,7.4-10.8c3.6-2.5,8.5-3.7,14.9-3.7c5.7,0,10.3,1,13.8,2.9c3.5,1.9,6,4.8,7.6,8.8
			c1.6,3.9,2.4,8.9,2.4,14.9v3.4h-11.9v-2.8c0-4-0.3-7.2-0.8-9.7c-0.5-2.5-1.6-4.4-3.2-5.6c-1.6-1.2-4.1-1.9-7.6-1.9
			c-3.8,0-6.5,0.9-8.2,2.6c-1.7,1.7-2.7,4.1-3.2,7c-0.4,3-0.6,6.3-0.6,10.1v33.8c0,4.4,0.3,8,1,10.9c0.6,2.9,1.9,5.1,3.7,6.5
			c1.8,1.4,4.4,2.1,7.7,2.1c3.3,0,5.9-0.8,7.7-2.4c1.8-1.6,3-3.9,3.7-7c0.7-3.1,1-6.9,1-11.5v-6.3h-11.6v-9H429v45.2h-8l-1.2-10.5
			c-1.2,3.4-3.1,6.2-5.6,8.3C411.5,131.5,408,132.6,403.5,132.6z"/>
		<path fill="#00F8B6" d="M466.6,131.5V99.3l-19.7-59h11.8l14,44l13.7-44h11.9l-19.6,59v32.2H466.6z"/>
		<path fill="#00F8B6" d="M517.8,131.5l1.7-91.2H532l16.1,74l16.2-74h12.4l1.7,91.2h-10.2l-1-66.2l-15.4,66.2h-7.2l-15.3-66.2
			l-1,66.2H517.8z"/>
	</g>
	<g>
		<path fill="#00F8B6" d="M17.3,82.1l-0.8-36.9l38.3-21.8c4.3-2.5,6.8-7.2,6.5-12.2L60.4,0.3L6,31.3c-3.5,2-5.6,5.7-5.6,9.7v61.4
			L10,96C14.6,93,17.4,87.7,17.3,82.1z"/>
		<path fill="#00F8B6" d="M107.5,29.6L53.8,59.6c-3.1,1.8-5.1,5.2-5.1,8.9v12.7l41.7-22.7l0.6,29.2l-38.3,21.8
			c-4.3,2.5-6.8,7.2-6.5,12.2l0.8,10.9l54.4-31c3.5-2,5.6-5.7,5.6-9.7V45.6L107.5,29.6z"/>
	</g>
</g>
</svg>
